<svg width="191" height="64" viewBox="0 0 191 64" fill="none" xmlns="http://www.w3.org/2000/svg">
<g clip-path="url(#clip0_21_1233)">
<path fill-rule="evenodd" clip-rule="evenodd" d="M36.4015 1.80338C34.4108 0.685983 31.9667 0.685983 29.9758 1.80338L11.7985 12.0062L40.0252 28.2376C42.7719 29.8171 42.7719 33.7658 40.0252 35.3453L11.7985 51.5767L29.9758 61.7798C31.9667 62.8968 34.4108 62.8968 36.4015 61.7798L58.247 49.5178C60.2637 48.3858 61.5085 46.2792 61.5085 43.9977V19.5852C61.5085 17.3037 60.2637 15.1971 58.247 14.065L36.4015 1.80338Z" fill="white"/>
<path fill-rule="evenodd" clip-rule="evenodd" d="M29.5035 33.7906C31.1712 32.9021 31.1712 30.6809 29.5035 29.7924L6.9896 17.798C5.32193 16.9096 3.23731 18.0202 3.23731 19.7971L3.2373 43.7858C3.2373 45.5628 5.32193 46.6734 6.9896 45.7849L29.5035 33.7906ZM9.71187 34.9706C11.4998 34.9706 12.9491 33.5473 12.9491 31.7915C12.9491 30.0357 11.4998 28.6123 9.71187 28.6123C7.92399 28.6123 6.4746 30.0357 6.4746 31.7915C6.4746 33.5473 7.92399 34.9706 9.71187 34.9706Z" fill="#0A85ED"/>
<path fill-rule="evenodd" clip-rule="evenodd" d="M131.11 28.612H123.641L116.501 7.70304L109.362 28.612H101.974L112.457 -0.000244141H120.628L131.11 28.612ZM127.873 5.58361H135.635V28.612H142.771V5.58361H150.534V-0.000244141H127.873V5.58361ZM74.4574 14.3262C74.4574 5.92261 80.4401 5.5148e-05 88.9869 5.5148e-05C95.8238 5.5148e-05 100.789 3.44153 102.295 9.20399H94.6031C93.5449 7.32318 91.5913 6.32276 88.9869 6.32276C84.5097 6.32276 81.5389 9.44409 81.5389 14.3262C81.5389 19.5284 84.5503 22.5697 89.5564 22.5697C93.016 22.5697 95.4173 20.7689 96.4751 17.6076H87.6434V12.5654H102.784V18.9281C101.318 23.7702 96.5568 28.6123 89.0276 28.6123C80.4807 28.6123 74.4574 22.7298 74.4574 14.3262ZM153.771 -0.000244141H174.814V6.35806H153.771V-0.000244141ZM153.771 11.1268H174.813V17.485H153.771V11.1268ZM174.813 22.2536H153.771V28.6119H174.813V22.2536ZM142.44 46.3823L147.64 63.582H153.29L159.719 46.423V63.582H166.72V34.9699H158.49L150.506 54.7785L142.44 34.9699L142.44 46.3823ZM140.822 34.9701H134.347V63.5825H140.822V34.9701ZM131.11 63.5825H123.64L116.5 42.6734L109.361 63.5825H101.974L112.456 34.9701H120.627L131.11 63.5825ZM88.9864 34.9703C80.4396 34.9703 74.4569 40.8929 74.4569 49.2962C74.4569 57.6999 80.4807 63.5825 89.0271 63.5825C96.5563 63.5825 101.318 58.7406 102.784 53.8983V47.5357H87.6434V52.5779H96.4751C95.4168 55.739 93.0155 57.5399 89.5564 57.5399C84.5503 57.5399 81.5384 54.4989 81.5384 49.2962C81.5384 44.4143 84.5097 41.293 88.9864 41.293C91.5913 41.293 93.5449 42.2934 94.6031 44.1742H102.295C100.789 38.4118 95.8238 34.9703 88.9864 34.9703ZM190.999 34.9701H169.957V41.3283H190.999V34.9701ZM190.999 46.0971H169.957V52.4553H190.999V46.0971ZM169.957 57.2243H190.999V63.5825H169.957V57.2243Z" fill="white" fill-opacity="0.68"/>
</g>
<defs>
<clipPath id="clip0_21_1233">
<rect width="191" height="64" fill="white"/>
</clipPath>
</defs>
</svg>
